<?xml version="1.0" standalone="no"?>
<!DOCTYPE svg PUBLIC "-//W3C//DTD SVG 20010904//EN"
 "http://www.w3.org/TR/2001/REC-SVG-20010904/DTD/svg10.dtd">
<svg version="1.0" xmlns="http://www.w3.org/2000/svg"
 width="500.000000pt" height="500.000000pt" viewBox="0 0 500.000000 500.000000"
 preserveAspectRatio="xMidYMid meet">
<metadata>
Created by potrace 1.16, written by Peter Selinger 2001-2019
</metadata>
<g transform="translate(0.000000,500.000000) scale(0.100000,-0.100000)"
fill="#000000" stroke="none">
<path d="M2085 4952 c-85 -8 -412 -131 -495 -186 -71 -47 -103 -58 -179 -62
-104 -6 -274 -31 -343 -51 -64 -17 -108 -51 -108 -83 0 -40 -41 -101 -124
-184 -46 -46 -87 -92 -90 -102 -4 -14 -26 -24 -83 -37 -43 -9 -108 -26 -146
-38 -63 -19 -69 -23 -91 -67 -14 -26 -50 -72 -81 -102 -93 -91 -108 -139 -54
-184 17 -14 35 -26 40 -26 5 0 9 29 9 64 l0 64 41 16 c52 21 155 46 192 46 17
0 27 -5 27 -14 0 -26 -70 -148 -175 -306 -96 -145 -165 -266 -165 -290 0 -20
47 -9 73 18 30 31 52 79 67 146 7 32 22 58 52 88 24 24 69 92 101 151 32 59
77 127 99 150 32 33 41 49 39 74 -1 26 6 37 41 66 142 114 350 234 467 268 30
9 46 21 54 38 49 115 164 156 419 149 l127 -3 35 -34 c20 -19 36 -39 36 -43 0
-4 -38 -8 -84 -8 -163 0 -283 -39 -474 -152 -163 -97 -259 -144 -341 -167 -87
-24 -86 -24 -118 -74 -14 -23 -37 -54 -50 -69 -42 -45 -15 -59 73 -37 27 7 44
17 44 26 0 31 35 86 69 108 20 13 86 38 146 56 133 38 188 65 255 124 61 55
106 78 191 101 78 20 250 23 331 5 l57 -12 7 -45 c3 -25 3 -49 -2 -54 -5 -4
-70 -13 -144 -20 -74 -6 -157 -19 -185 -27 -66 -21 -227 -115 -282 -166 -37
-34 -83 -101 -83 -121 0 -3 24 -13 53 -22 43 -15 107 -18 389 -22 l336 -4 13
-29 c13 -34 45 -59 72 -59 16 0 18 5 13 28 -12 50 -11 56 7 60 10 2 29 1 43
-2 19 -5 24 -13 24 -40 0 -40 -13 -55 -78 -93 l-47 -28 -305 -6 c-284 -6 -312
-8 -402 -32 -161 -42 -176 -52 -231 -143 -26 -43 -77 -122 -113 -174 -78 -112
-111 -179 -133 -269 l-16 -66 -175 -105 c-252 -151 -286 -179 -350 -292 -52
-91 -95 -196 -85 -206 7 -7 8 -6 99 120 42 59 99 132 127 162 90 98 211 165
335 185 l57 8 -6 -71 c-3 -39 -18 -136 -32 -216 -21 -108 -26 -162 -22 -213 6
-72 34 -142 68 -173 32 -29 39 -5 39 134 0 124 10 173 42 200 14 11 16 -3 21
-125 3 -76 11 -156 17 -178 12 -39 68 -105 89 -105 7 0 11 26 11 70 0 39 3 70
8 70 4 0 27 -35 52 -77 64 -109 133 -180 205 -215 33 -15 73 -28 88 -28 15 0
29 -6 31 -12 27 -97 46 -208 41 -231 -7 -26 -6 -28 19 -21 32 8 77 -9 93 -35
21 -34 33 -135 31 -269 l-2 -132 -41 -20 c-52 -25 -150 -26 -266 -4 -46 9
-121 17 -167 18 -73 1 -85 -2 -98 -19 -13 -17 -27 -20 -91 -21 -88 -1 -76 10
-166 -148 -34 -60 -84 -134 -112 -164 l-50 -55 50 5 c28 3 71 18 98 33 40 23
47 31 47 58 0 169 136 242 433 231 110 -3 298 -22 305 -29 9 -8 -21 -74 -41
-92 -37 -34 -64 -43 -184 -64 -132 -22 -185 -42 -231 -89 -106 -105 -170 -386
-144 -628 13 -116 36 -212 52 -212 6 0 11 1 11 3 1 1 4 91 8 199 4 118 10 201
17 208 7 7 82 10 225 8 l214 -3 25 -47 c41 -78 110 -88 125 -17 7 31 8 31 55
27 99 -10 169 -59 313 -218 38 -42 66 -66 64 -55 -3 11 -23 83 -46 160 -118
395 -161 519 -230 665 -34 72 -35 74 -39 42 -2 -19 6 -98 17 -177 21 -140 26
-286 12 -335 -9 -32 -51 -37 -125 -16 -81 24 -138 80 -191 190 -60 124 -62
135 -31 180 14 21 28 46 31 57 7 21 25 25 42 8 8 -8 19 1 40 33 66 98 96 214
114 441 6 78 14 165 17 192 l7 50 71 -155 c39 -85 133 -299 207 -475 75 -176
183 -428 240 -560 l104 -240 135 -3 134 -3 57 178 c31 98 64 210 73 248 30
131 42 205 33 205 -11 0 -52 -56 -77 -105 -11 -22 -43 -100 -71 -174 -56 -147
-94 -214 -147 -261 l-35 -30 -29 20 c-81 57 -121 175 -145 424 -4 38 -9 74
-11 80 -3 7 9 16 25 22 18 7 49 39 80 82 54 74 65 82 112 82 34 0 34 3 10 -92
-11 -42 -29 -142 -41 -224 -11 -82 -23 -157 -26 -166 -10 -33 25 -19 72 28 75
74 105 159 153 431 35 194 65 300 107 370 17 30 27 59 25 78 -3 35 13 82 36
107 12 13 20 15 35 7 19 -10 19 -11 -2 -43 -25 -42 -25 -71 1 -160 12 -39 22
-90 23 -113 1 -38 8 -50 67 -110 36 -38 100 -107 143 -156 43 -48 96 -99 117
-115 36 -25 39 -30 33 -62 -8 -47 -57 -151 -80 -171 -13 -11 -46 -18 -104 -21
-172 -11 -273 -69 -310 -178 -10 -30 -15 -59 -11 -63 15 -15 80 21 145 83 37
33 78 65 94 71 33 14 90 13 127 -1 23 -9 26 -14 20 -39 -3 -16 -26 -68 -51
-116 -45 -88 -53 -118 -32 -131 26 -16 102 99 157 239 l23 57 279 0 279 0 1
-32 c1 -18 2 -116 3 -218 1 -135 5 -191 14 -209 20 -34 30 -17 54 95 17 82 19
122 15 239 -3 80 -12 166 -21 200 -55 205 -189 339 -374 375 -59 12 -225 9
-297 -6 -26 -5 -32 -1 -49 28 -11 18 -40 54 -64 80 l-45 48 47 21 c104 46 174
54 457 54 l266 0 47 -39 c28 -23 49 -49 52 -65 4 -18 18 -34 39 -45 18 -10 58
-49 90 -87 58 -69 108 -109 139 -109 23 0 20 12 -15 83 -58 116 -160 236 -264
313 -38 28 -44 29 -130 26 -49 -2 -136 2 -191 9 -98 12 -108 11 -280 -19 -205
-36 -275 -43 -298 -30 -14 8 -16 33 -14 196 3 165 1 191 -15 215 -16 25 -16
30 -2 64 30 71 79 136 144 189 l64 54 18 -29 c21 -35 33 -43 53 -35 12 5 16
20 16 59 0 128 45 156 139 85 29 -22 58 -37 63 -34 7 5 8 31 2 78 -14 124 -11
163 13 188 21 20 26 21 70 11 27 -6 69 -19 96 -28 38 -14 50 -15 62 -5 23 19
18 59 -15 119 -17 30 -30 58 -30 63 0 15 45 8 118 -17 39 -14 85 -25 102 -25
25 0 30 4 30 24 0 37 -36 74 -109 110 -71 36 -97 59 -103 91 -2 17 2 19 27 17
50 -6 87 -27 150 -84 65 -59 103 -84 113 -73 4 4 7 28 6 54 0 36 -10 65 -42
123 -38 69 -51 115 -36 131 16 15 65 -19 98 -69 38 -57 97 -97 116 -78 25 25
-35 148 -148 309 -29 41 -59 90 -67 109 l-15 34 131 71 c207 112 322 194 440
311 168 166 232 296 233 470 1 86 -2 99 -26 142 -16 25 -47 63 -70 83 -146
126 -547 226 -964 242 l-171 6 -54 52 c-292 281 -660 448 -1064 480 -85 7
-249 11 -290 7z m429 -72 c79 -8 96 -14 142 -45 29 -20 122 -65 206 -99 357
-146 505 -253 586 -424 l35 -74 46 7 c25 3 93 21 151 40 l105 34 80 -16 c44
-8 82 -17 84 -19 3 -2 -5 -11 -17 -20 -13 -9 -22 -26 -22 -40 0 -22 3 -24 28
-18 46 12 106 34 128 49 18 11 31 11 90 -1 171 -36 317 -96 383 -157 49 -46
73 -108 73 -182 -1 -180 -111 -345 -346 -519 l-88 -66 -34 30 c-34 29 -91 47
-119 36 -28 -10 -15 -26 46 -57 34 -17 58 -34 53 -39 -18 -16 -169 -100 -181
-100 -7 0 -16 8 -22 17 -8 15 -11 12 -24 -17 -13 -32 -25 -40 -157 -94 -122
-51 -145 -58 -162 -47 -11 7 -21 11 -22 9 -1 -2 -12 -20 -25 -40 -74 -124
-282 -241 -466 -263 -39 -5 -81 -19 -122 -41 -183 -101 -495 -163 -751 -149
-113 6 -126 5 -158 -14 l-35 -21 -9 25 c-15 41 -36 41 -80 1 -22 -20 -44 -36
-49 -36 -5 0 -37 13 -72 29 -35 15 -86 36 -112 46 -26 9 -62 29 -78 43 -29 23
-39 26 -132 27 -155 2 -224 41 -204 115 6 24 -5 25 -69 8 -42 -12 -47 -11 -60
7 -34 49 -77 83 -142 114 l-71 34 72 81 c40 44 108 117 152 162 68 69 90 84
138 100 50 15 64 16 105 5 26 -6 64 -23 85 -37 48 -31 110 -54 148 -54 28 0
29 -2 29 -45 0 -40 2 -45 23 -45 12 0 36 9 52 20 17 11 40 20 53 20 17 0 22
-6 22 -27 l0 -28 343 1 c352 1 432 7 531 44 89 32 110 38 171 49 35 6 81 24
110 43 105 66 135 79 192 85 53 6 61 10 98 51 48 55 123 92 188 92 36 0 49 4
54 18 3 9 24 60 46 112 23 54 42 117 45 147 4 46 7 52 31 58 81 18 113 55 48
55 -30 0 -57 14 -57 31 0 4 16 10 35 13 33 6 75 39 75 58 0 11 -44 10 -77 -3
-38 -14 -56 11 -50 71 4 33 13 51 35 71 l30 27 -23 6 c-14 3 -38 24 -56 45
-38 48 -51 54 -84 39 -30 -14 -42 -52 -27 -87 6 -14 22 -55 37 -90 l27 -64
-23 -18 c-22 -17 -24 -17 -37 2 -16 24 -80 27 -89 4 -3 -9 0 -37 8 -62 11 -40
10 -48 -2 -55 -8 -5 -68 -42 -134 -83 -155 -96 -253 -130 -359 -123 -73 5 -76
4 -103 -25 -29 -31 -96 -66 -125 -67 -9 0 -38 18 -63 40 -25 22 -50 40 -56 40
-5 0 -9 -24 -9 -54 l0 -53 -77 -7 c-43 -4 -108 -10 -145 -13 l-68 -6 0 27 c0
70 -45 87 -80 31 -30 -49 -65 -53 -183 -21 -52 14 -106 26 -121 26 -22 0 -26
4 -26 28 0 65 -56 83 -62 20 -2 -25 -8 -34 -25 -36 -17 -3 -24 3 -28 25 -4 15
-8 33 -10 39 -2 8 -23 8 -73 -2 -105 -20 -172 6 -85 33 24 7 121 12 269 12
251 0 302 7 379 51 81 46 108 80 113 145 4 55 4 55 -29 69 -61 25 -136 28
-411 16 -204 -9 -298 -9 -372 -1 -134 15 -137 18 -82 69 71 65 156 116 247
147 76 27 97 29 229 31 154 1 179 5 223 36 43 31 60 72 47 114 -15 44 -44 63
-108 71 -72 8 -79 14 -66 61 6 22 7 49 3 60 -10 26 -58 52 -97 52 -22 0 -31 7
-43 32 -22 51 -65 69 -166 73 -49 1 -91 3 -95 4 -15 2 -8 21 7 21 9 0 47 16
85 35 48 24 83 35 113 35 24 0 69 9 100 19 166 57 420 82 621 61z m-1036 -230
c46 -11 100 -20 121 -20 22 0 44 -6 51 -15 11 -13 -6 -15 -143 -15 l-155 0
-94 -93 c-107 -107 -186 -154 -317 -187 -46 -11 -85 -19 -87 -17 -6 6 83 72
191 143 50 32 124 93 166 135 41 42 82 79 90 82 29 11 96 6 177 -13z m306 -1
c34 -27 25 -39 -30 -39 -31 0 -50 6 -65 21 -17 17 -19 23 -8 30 25 15 76 10
103 -12z m-683 -78 c-13 -23 -64 -67 -102 -87 l-29 -14 11 27 c19 51 67 91
112 92 14 1 16 -3 8 -18z m833 -27 c9 -8 16 -21 16 -28 0 -13 -28 -43 -33 -35
-2 2 -15 21 -30 42 l-28 37 30 0 c16 0 37 -7 45 -16z m177 -186 c25 -39 -6
-87 -57 -91 -28 -2 -29 0 -35 53 -3 30 -1 58 4 61 13 9 79 -7 88 -23z m-1391
-170 c-1 -13 -18 -42 -39 -65 l-39 -43 -96 0 c-94 0 -96 1 -86 20 14 26 68 53
153 75 37 10 70 22 73 27 11 17 34 7 34 -14z m2398 -1524 c6 -47 -16 -100 -57
-137 -71 -64 -216 -100 -316 -77 -52 11 -125 53 -125 70 0 6 25 22 57 35 55
25 57 25 77 6 49 -44 92 -51 154 -26 51 22 80 52 92 96 9 32 17 40 53 52 53
19 61 17 65 -19z m416 -128 c60 -80 -24 -240 -182 -344 -85 -57 -79 -35 29
103 63 81 97 153 105 220 7 60 16 64 48 21z m-244 -35 c0 -42 -33 -189 -62
-275 -104 -310 -307 -556 -654 -792 l-114 -78 -69 22 c-140 45 -355 164 -501
277 -75 59 -185 166 -257 251 -140 166 -199 277 -109 205 76 -61 105 -32 56
55 -36 64 -34 69 40 80 39 6 268 -6 416 -22 l52 -6 12 -62 c6 -33 16 -83 21
-110 23 -117 71 -160 157 -137 25 6 48 14 50 16 2 2 -4 45 -13 97 -11 63 -24
104 -40 128 -22 32 -23 40 -14 74 6 21 25 61 42 88 l32 48 65 -3 c51 -2 84
-12 157 -46 59 -27 114 -45 149 -48 74 -8 70 7 -19 67 -37 25 -67 48 -67 53 0
4 48 7 106 7 132 0 257 25 424 83 151 53 140 51 140 28z m-1951 -1647 c47 -10
87 -56 135 -157 l43 -89 -36 -16 c-38 -16 -289 -28 -339 -15 -22 5 -24 10 -20
52 3 25 20 81 39 124 32 74 36 78 79 91 54 17 58 18 99 10z m2121 -94 c152
-19 290 -74 320 -129 11 -21 10 -21 -217 -18 -125 2 -235 6 -244 10 -13 7 -14
17 -8 58 16 100 8 96 149 79z"/>
<path d="M3033 2393 c-9 -3 -10 -10 -3 -23 23 -44 -61 -69 -100 -30 -42 42
-70 -12 -29 -56 l21 -23 -38 -18 c-20 -10 -39 -24 -42 -30 -6 -19 45 -16 78 4
24 14 34 15 55 5 32 -15 85 -16 85 -2 0 6 -7 10 -16 10 -8 0 -25 5 -36 11 -19
10 -17 12 23 31 34 15 50 18 71 10 19 -7 32 -6 44 2 15 12 15 13 -7 19 l-24 6
33 30 c55 51 38 75 -35 49 -24 -9 -39 -9 -51 -2 -9 6 -23 9 -29 7z"/>
<path d="M2135 1803 c-94 -11 -114 -15 -131 -29 -17 -13 -11 -14 61 -12 44 2
172 -1 285 -5 142 -6 226 -5 274 3 62 10 113 27 104 34 -5 5 -560 13 -593 9z"/>
<path d="M2265 1671 c-22 -4 -51 -13 -65 -20 -22 -13 -16 -15 90 -38 122 -25
171 -24 201 3 34 31 23 41 -48 48 -38 4 -84 8 -103 10 -19 2 -53 1 -75 -3z"/>
<path d="M1065 3966 c-54 -24 -92 -83 -129 -203 -15 -47 27 -22 127 77 56 55
110 103 119 106 10 3 18 9 18 14 0 23 -88 27 -135 6z"/>
</g>
</svg>
