<svg width="100" height="100" viewBox="0 0 100 100" fill="none" xmlns="http://www.w3.org/2000/svg">
<path d="M70.8333 45.8333C70.8333 34.3271 61.5062 25 49.9999 25C38.4937 25 29.1666 34.3271 29.1666 45.8333M29.1666 47.9167C16.7124 50.425 8.33325 55.1167 8.33325 60.4875C8.33325 68.5021 26.9874 75 49.9999 75C73.0124 75 91.6666 68.5021 91.6666 60.4875C91.6666 55.1167 83.2874 50.425 70.8333 47.9167" stroke="black" stroke-width="4"/>
<path d="M29.1665 45.8333C31.2498 47.5687 37.4998 54.1666 49.9998 54.1666C62.4998 54.1666 68.7498 47.9166 70.8332 45.8333M39.5832 52.0833L43.7498 41.6666" stroke="black" stroke-width="4" stroke-linecap="round" stroke-linejoin="round"/>
</svg>
